<svg width="321" height="23" viewBox="0 0 321 23" fill="none" xmlns="http://www.w3.org/2000/svg">
<path d="M1.23167e-06 22.103V22.258H3.689V22.103C2.728 22.103 2.015 21.948 2.387 20.863L4.526 14.849H13.423L15.748 20.863C16.182 21.979 15.469 22.103 14.508 22.103V22.258H19.127V22.103C18.166 22.103 17.546 21.917 17.143 20.832L9.207 0.155001L1.891 21.049C1.519 21.886 0.899001 22.103 1.23167e-06 22.103ZM4.65 14.415L8.773 2.666L13.268 14.415H4.65ZM1.922 20.925L1.953 20.863C1.953 20.894 1.953 20.894 1.922 20.925ZM20.2105 16.802C20.3035 20.305 23.0005 22.692 26.6275 22.692C31.3705 22.692 33.0135 19.344 33.0135 17.236C33.0135 11.098 22.9075 10.416 22.9075 4.836C22.9075 2.015 24.6745 0.589001 26.8755 0.558002C28.9215 0.589001 30.5025 2.232 30.5645 4.34L31.7115 2.728C30.9055 1.147 29.1385 0.155001 26.9375 0.124002H26.8445C23.6825 0.155001 21.6055 2.015 21.6055 5.053C21.6055 11.408 31.7115 12.09 31.7115 17.205C31.7115 19.189 30.7815 22.258 26.6275 22.258C23.2175 22.258 21.4195 19.747 21.4505 17.081C21.4505 15.5 22.1325 14.105 23.1555 12.927L21.9155 12.121C20.7375 13.485 20.1795 15.159 20.2105 16.802ZM34.3979 11.408C34.3979 17.639 37.7459 22.692 43.9769 22.692C50.2079 22.692 53.4939 17.639 53.4939 11.408C53.4939 5.177 50.2079 0.124002 43.9769 0.124002C37.7459 0.124002 34.3979 5.177 34.3979 11.408ZM43.9769 0.558002C48.9679 0.558002 51.9749 4.495 51.9749 11.408C51.9749 18.321 48.9679 22.258 43.9769 22.258C38.9859 22.258 35.9169 18.321 35.9169 11.408C35.9169 4.495 38.9859 0.558002 43.9769 0.558002ZM54.9039 16.802C54.9969 20.305 57.6939 22.692 61.3209 22.692C66.0639 22.692 67.7069 19.344 67.7069 17.236C67.7069 11.098 57.6009 10.416 57.6009 4.836C57.6009 2.015 59.3679 0.589001 61.5689 0.558002C63.6149 0.589001 65.1959 2.232 65.2579 4.34L66.4049 2.728C65.5989 1.147 63.8319 0.155001 61.6309 0.124002H61.5379C58.3759 0.155001 56.2989 2.015 56.2989 5.053C56.2989 11.408 66.4049 12.09 66.4049 17.205C66.4049 19.189 65.4749 22.258 61.3209 22.258C57.9109 22.258 56.1129 19.747 56.1439 17.081C56.1439 15.5 56.8259 14.105 57.8489 12.927L56.6089 12.121C55.4309 13.485 54.8729 15.159 54.9039 16.802ZM69.5563 22.258H73.8963V22.103C72.9353 22.103 72.3773 21.979 72.3773 20.863V5.456C72.3773 4.712 71.7883 4.154 71.0753 4.154H69.5563V4.309C70.5173 4.309 71.0753 4.402 71.0753 5.549V20.863C71.0753 21.979 70.5173 22.103 69.5563 22.103V22.258ZM70.5173 1.643C70.6723 2.294 71.3543 2.697 72.0053 2.542C72.6563 2.387 73.0593 1.736 72.9043 1.054C72.7493 0.403002 72.0983 1.54972e-06 71.4473 0.155001C70.7653 0.310003 70.3623 0.961002 70.5173 1.643ZM77.3123 1.953L83.3573 11.935L77.6533 21.142C77.1263 21.917 76.6923 22.103 75.8243 22.103V22.258H79.3583V22.103C78.3973 22.103 77.7153 21.855 78.3353 20.863L90.0223 1.953C90.6423 0.961002 91.0453 0.713002 92.0373 0.713002V0.558002H88.5033V0.713002C89.3713 0.713002 89.9913 0.930003 89.6503 1.705L84.1323 10.664L78.8313 1.953C78.2733 1.023 78.9553 0.713002 79.9163 0.713002V0.558002H75.2973V0.713002C76.2583 0.713002 76.6923 0.961002 77.3123 1.953ZM105.683 22.258V22.103C104.722 22.103 104.164 21.979 104.164 20.863V7.657L106.489 5.859L112.317 20.863C112.751 21.948 111.945 22.103 110.984 22.103V22.258H115.51V22.103C114.549 22.103 114.115 21.855 113.681 20.77L107.574 5.053L111.573 1.922C112.565 1.178 113.216 0.713002 114.177 0.713002V0.558002H110.674V0.713002C111.604 0.713002 111.914 1.085 111.015 1.829L104.164 7.13V1.953C104.164 0.837002 104.722 0.713002 105.683 0.713002V0.558002H101.343V0.713002C102.304 0.713002 102.862 0.837002 102.862 1.953V20.863C102.862 21.979 102.304 22.103 101.343 22.103V22.258H105.683ZM110.86 1.953L110.891 1.922C110.891 1.953 110.86 1.953 110.86 1.953ZM122.639 22.692C126.7 22.692 128.839 20.057 129.986 17.205V17.236C129.986 20.987 131.102 22.692 133.055 22.692C134.977 22.692 135.597 21.173 135.597 20.212H135.194C135.194 21.638 134.202 22.258 133.179 22.258C132.373 22.258 131.288 21.917 131.288 17.825V6.324C131.288 3.658 129.769 0.124002 124.499 0.124002C121.833 0.124002 118.702 1.271 117.524 4.03L118.888 4.464C119.849 1.736 122.422 0.558002 124.592 0.558002C129.49 0.558002 129.986 4.154 129.986 6.851V8.494C125.739 8.494 116.439 9.207 116.439 16.802C116.439 20.429 119.074 22.692 122.639 22.692ZM129.986 8.773V11.129C129.986 13.485 129.583 22.258 122.639 22.258C119.849 22.258 117.741 20.553 117.741 16.802C117.741 10.013 125.677 8.773 129.986 8.773ZM135.371 0.558002V10.478H135.526C135.526 0.992002 135.526 0.992002 141.478 0.992002V20.863C141.478 21.979 140.92 22.103 139.959 22.103V22.258H144.299V22.103C143.307 22.103 142.78 21.979 142.78 20.863V0.992002C148.701 0.992002 148.701 0.992002 148.701 10.478H148.856V0.558002H135.371ZM150.254 11.408C150.254 17.639 154.253 22.692 160.484 22.692C166.467 22.692 169.381 19.282 169.381 15.035H168.916C168.916 18.724 166.343 22.258 160.484 22.258C155.493 22.258 151.773 18.321 151.773 11.408C151.773 10.912 151.804 10.416 151.835 9.951H169.381V9.517C169.381 5.921 166.808 0.124002 160.081 0.124002C153.85 0.124002 150.254 5.177 150.254 11.408ZM160.081 0.558002C164.111 0.558002 167.552 2.79 168.017 7.936C168.079 8.804 167.428 9.517 166.56 9.517H151.866C152.424 3.782 155.555 0.558002 160.081 0.558002ZM170.871 11.408C170.871 17.639 175.738 22.692 181.969 22.692C183.333 22.692 184.604 22.537 185.906 22.072C188.882 21.018 190.866 18.135 190.866 14.942V11.749H172.39V11.408C172.39 4.495 176.978 0.558002 181.969 0.558002C187.828 0.558002 189.657 4.185 190.432 7.781H190.866V0.558002H190.556V0.589001C190.494 1.519 189.812 1.984 189.006 1.984C188.603 1.984 188.138 1.86 187.735 1.612C186.402 0.837002 184.511 0.124002 181.969 0.124002C175.738 0.124002 170.871 5.177 170.871 11.408ZM190.37 15.004C190.37 18.352 187.828 22.258 181.969 22.258C177.164 22.258 172.731 18.631 172.421 12.183C190.339 12.183 190.37 12.183 190.37 15.004ZM192.486 11.408C192.486 17.639 195.834 22.692 202.065 22.692C208.296 22.692 211.582 17.639 211.582 11.408C211.582 5.177 208.296 0.124002 202.065 0.124002C195.834 0.124002 192.486 5.177 192.486 11.408ZM202.065 0.558002C207.056 0.558002 210.063 4.495 210.063 11.408C210.063 18.321 207.056 22.258 202.065 22.258C197.074 22.258 194.005 18.321 194.005 11.408C194.005 4.495 197.074 0.558002 202.065 0.558002ZM212.386 0.713002C213.347 0.713002 213.905 0.837002 213.905 1.953V20.863C213.905 21.979 213.347 22.103 212.386 22.103V22.258H216.726V22.103C215.765 22.103 215.207 21.979 215.207 20.863V1.953C215.207 1.302 216.261 0.992002 218.834 0.992002C220.663 0.992002 224.011 1.953 224.011 5.673C224.011 8.959 221.872 11.284 218.896 11.284C217.904 11.284 216.819 11.036 215.672 10.447L215.486 10.788L224.228 20.956C224.941 21.793 225.995 22.258 227.08 22.258H228.072V22.103C227.111 22.103 226.708 21.824 225.716 20.708L218.059 11.749C218.524 11.842 219.02 11.904 219.485 11.904C222.647 11.904 225.53 9.827 225.53 5.611C225.53 2.201 222.926 0.558002 218.71 0.558002H212.386V0.713002ZM229.461 22.258H233.801V22.103C232.84 22.103 232.282 21.979 232.282 20.863V5.456C232.282 4.712 231.693 4.154 230.98 4.154H229.461V4.309C230.422 4.309 230.98 4.402 230.98 5.549V20.863C230.98 21.979 230.422 22.103 229.461 22.103V22.258ZM230.422 1.643C230.577 2.294 231.259 2.697 231.91 2.542C232.561 2.387 232.964 1.736 232.809 1.054C232.654 0.403002 232.003 1.54972e-06 231.352 0.155001C230.67 0.310003 230.267 0.961002 230.422 1.643ZM237.217 1.953L243.262 11.935L237.558 21.142C237.031 21.917 236.597 22.103 235.729 22.103V22.258H239.263V22.103C238.302 22.103 237.62 21.855 238.24 20.863L249.927 1.953C250.547 0.961002 250.95 0.713002 251.942 0.713002V0.558002H248.408V0.713002C249.276 0.713002 249.896 0.930003 249.555 1.705L244.037 10.664L238.736 1.953C238.178 1.023 238.86 0.713002 239.821 0.713002V0.558002H235.202V0.713002C236.163 0.713002 236.597 0.961002 237.217 1.953ZM257.265 22.692C261.326 22.692 263.465 20.057 264.612 17.205V17.236C264.612 20.987 265.728 22.692 267.681 22.692C269.603 22.692 270.223 21.173 270.223 20.212H269.82C269.82 21.638 268.828 22.258 267.805 22.258C266.999 22.258 265.914 21.917 265.914 17.825V6.324C265.914 3.658 264.395 0.124002 259.125 0.124002C256.459 0.124002 253.328 1.271 252.15 4.03L253.514 4.464C254.475 1.736 257.048 0.558002 259.218 0.558002C264.116 0.558002 264.612 4.154 264.612 6.851V8.494C260.365 8.494 251.065 9.207 251.065 16.802C251.065 20.429 253.7 22.692 257.265 22.692ZM264.612 8.773V11.129C264.612 13.485 264.209 22.258 257.265 22.258C254.475 22.258 252.367 20.553 252.367 16.802C252.367 10.013 260.303 8.773 264.612 8.773ZM271.298 0.713002C272.259 0.713002 272.817 0.837002 272.817 1.953V20.863C272.817 21.979 272.259 22.103 271.298 22.103V22.258H283.047V12.896H282.892C282.892 21.545 281.28 21.824 278.428 21.824H274.119V1.953C274.119 0.837002 274.677 0.713002 275.638 0.713002V0.558002H271.298V0.713002ZM291.262 22.692C295.323 22.692 297.462 20.057 298.609 17.205V17.236C298.609 20.987 299.725 22.692 301.678 22.692C303.6 22.692 304.22 21.173 304.22 20.212H303.817C303.817 21.638 302.825 22.258 301.802 22.258C300.996 22.258 299.911 21.917 299.911 17.825V6.324C299.911 3.658 298.392 0.124002 293.122 0.124002C290.456 0.124002 287.325 1.271 286.147 4.03L287.511 4.464C288.472 1.736 291.045 0.558002 293.215 0.558002C298.113 0.558002 298.609 4.154 298.609 6.851V8.494C294.362 8.494 285.062 9.207 285.062 16.802C285.062 20.429 287.697 22.692 291.262 22.692ZM298.609 8.773V11.129C298.609 13.485 298.206 22.258 291.262 22.258C288.472 22.258 286.364 20.553 286.364 16.802C286.364 10.013 294.3 8.773 298.609 8.773ZM305.296 0.713002C306.257 0.713002 306.815 0.837002 306.815 1.953V20.863C306.815 21.979 306.257 22.103 305.296 22.103V22.258H309.636V22.103C308.675 22.103 308.117 21.979 308.117 20.863V1.953C308.117 1.302 309.171 0.992002 311.744 0.992002C313.573 0.992002 316.921 1.953 316.921 5.673C316.921 8.959 314.782 11.284 311.806 11.284C310.814 11.284 309.729 11.036 308.582 10.447L308.396 10.788L317.138 20.956C317.851 21.793 318.905 22.258 319.99 22.258H320.982V22.103C320.021 22.103 319.618 21.824 318.626 20.708L310.969 11.749C311.434 11.842 311.93 11.904 312.395 11.904C315.557 11.904 318.44 9.827 318.44 5.611C318.44 2.201 315.836 0.558002 311.62 0.558002H305.296V0.713002Z" fill="#C9AC8C"/>
</svg>
