<svg width="108" height="31" viewBox="0 0 108 31" fill="none" xmlns="http://www.w3.org/2000/svg">
<path d="M11.222 22.785C12.059 22.785 12.896 22.692 13.671 22.537C12.555 24.056 11.098 25.575 9.579 26.784C7.099 25.761 5.084 24.862 3.534 24.862C0.930002 24.862 0.465002 26.288 0.465002 27.311C0.465002 28.551 1.519 29.822 3.751 29.822C5.58 29.822 7.688 28.799 9.641 27.311C13.113 28.768 17.143 30.442 20.398 30.442C23.715 30.442 25.637 29.047 25.637 26.505C25.637 24.583 24.211 23.343 22.847 23.002L22.723 23.281C23.715 23.715 24.335 24.304 24.335 26.195C24.335 29.388 21.762 30.008 20.367 30.008C17.205 30.008 13.392 28.396 10.044 27.001C10.757 26.412 11.439 25.792 12.059 25.11C13.485 23.622 15.128 22.289 16.895 21.235C20.15 19.282 22.258 15.655 22.258 11.501C22.258 5.42501 17.67 0.465012 11.656 0.248011C5.394 1.26958e-05 0.248002 4.99101 0.124002 11.253C1.77149e-06 17.608 4.898 22.785 11.222 22.785ZM11.222 0.651012C16.213 0.651012 20.739 4.58801 20.739 11.501C20.739 18.445 16.213 22.351 11.222 22.351C6.231 22.351 1.643 18.445 1.643 11.501C1.643 4.58801 6.231 0.651012 11.222 0.651012ZM1.767 27.311C1.767 25.916 2.635 25.296 3.751 25.296C4.867 25.296 6.851 26.133 9.176 27.094C7.347 28.458 5.394 29.388 3.751 29.388C2.821 29.388 1.767 28.954 1.767 27.311ZM23.9371 22.351H28.2771V22.196C27.3161 22.196 26.7581 22.072 26.7581 20.956V5.54901C26.7581 4.80501 26.1691 4.24701 25.4561 4.24701H23.9371V4.40201C24.8981 4.40201 25.4561 4.49501 25.4561 5.64201V20.956C25.4561 22.072 24.8981 22.196 23.9371 22.196V22.351ZM24.8981 1.73601C25.0531 2.38701 25.7351 2.79001 26.3861 2.63501C27.0371 2.48001 27.4401 1.82901 27.2851 1.14701C27.1301 0.496012 26.4791 0.0930115 25.8281 0.248011C25.1461 0.403013 24.7431 1.05401 24.8981 1.73601ZM29.8331 0.651012V0.806012C30.7941 0.806012 31.3521 0.930012 31.3521 2.04601V20.956C31.3521 22.072 30.7941 22.196 29.8331 22.196V22.351H36.1571C44.1551 22.351 47.5031 17.05 47.5031 10.509C47.5031 3.56501 43.8761 0.217012 39.1951 0.217012C36.1261 0.217012 33.6461 2.13901 32.6541 4.34001V1.95301C32.6541 1.24001 32.0651 0.651012 31.3521 0.651012H29.8331ZM32.6541 6.54101C32.6541 3.93701 35.3511 0.651012 39.0711 0.651012C43.5041 0.651012 45.9841 3.84401 45.9841 10.509C45.9841 20.15 40.7141 21.917 36.2811 21.917C33.7081 21.917 32.6541 21.607 32.6541 20.956V6.54101ZM48.9127 22.351H53.2527V22.196C52.2917 22.196 51.7337 22.072 51.7337 20.956V5.54901C51.7337 4.80501 51.1447 4.24701 50.4317 4.24701H48.9127V4.40201C49.8737 4.40201 50.4317 4.49501 50.4317 5.64201V20.956C50.4317 22.072 49.8737 22.196 48.9127 22.196V22.351ZM49.8737 1.73601C50.0287 2.38701 50.7107 2.79001 51.3617 2.63501C52.0127 2.48001 52.4157 1.82901 52.2607 1.14701C52.1057 0.496012 51.4547 0.0930115 50.8037 0.248011C50.1217 0.403013 49.7187 1.05401 49.8737 1.73601ZM54.6041 0.806012C55.5651 0.806012 56.1231 0.930012 56.1231 2.04601V20.956C56.1231 22.072 55.5651 22.196 54.6041 22.196V22.351H58.9441V22.196C57.9831 22.196 57.4251 22.072 57.4251 20.956V2.04601C57.4251 1.39501 58.4791 1.08501 61.0521 1.08501C62.8811 1.08501 66.2291 2.04601 66.2291 5.76601C66.2291 9.05201 64.0901 11.377 61.1141 11.377C60.1221 11.377 59.0371 11.129 57.8901 10.54L57.7041 10.881L66.4461 21.049C67.1591 21.886 68.2131 22.351 69.2981 22.351H70.2901V22.196C69.3291 22.196 68.9261 21.917 67.9341 20.801L60.2771 11.842C60.7421 11.935 61.2381 11.997 61.7031 11.997C64.8651 11.997 67.7481 9.92001 67.7481 5.70401C67.7481 2.29401 65.1441 0.651012 60.9281 0.651012H54.6041V0.806012ZM71.6783 22.351H76.0183V22.196C75.0573 22.196 74.4993 22.072 74.4993 20.956V5.54901C74.4993 4.80501 73.9103 4.24701 73.1973 4.24701H71.6783V4.40201C72.6393 4.40201 73.1973 4.49501 73.1973 5.64201V20.956C73.1973 22.072 72.6393 22.196 71.6783 22.196V22.351ZM72.6393 1.73601C72.7943 2.38701 73.4763 2.79001 74.1273 2.63501C74.7783 2.48001 75.1813 1.82901 75.0263 1.14701C74.8713 0.496012 74.2203 0.0930115 73.5693 0.248011C72.8873 0.403013 72.4843 1.05401 72.6393 1.73601ZM77.8844 16.895C77.9774 20.398 80.6744 22.785 84.3014 22.785C89.0444 22.785 90.6874 19.437 90.6874 17.329C90.6874 11.191 80.5814 10.509 80.5814 4.92901C80.5814 2.10801 82.3484 0.682011 84.5494 0.651012C86.5954 0.682011 88.1764 2.32501 88.2384 4.43301L89.3854 2.82101C88.5794 1.24001 86.8124 0.248011 84.6114 0.217012H84.5184C81.3564 0.248011 79.2794 2.10801 79.2794 5.14601C79.2794 11.501 89.3854 12.183 89.3854 17.298C89.3854 19.282 88.4554 22.351 84.3014 22.351C80.8914 22.351 79.0934 19.84 79.1244 17.174C79.1244 15.593 79.8064 14.198 80.8294 13.02L79.5894 12.214C78.4114 13.578 77.8534 15.252 77.8844 16.895ZM92.5367 22.196V22.351H96.8767V22.196C95.9157 22.196 95.3577 22.072 95.3577 20.956V9.11401C96.1947 10.075 98.0237 10.447 99.7907 10.788C102.147 11.222 104.565 11.718 104.875 13.516V20.956C104.875 22.072 104.348 22.196 103.356 22.196V22.351H107.696V22.196C106.735 22.196 106.177 22.072 106.177 20.956V2.04601C106.177 0.930012 106.735 0.806012 107.696 0.806012V0.651012H103.356V0.806012C104.348 0.806012 104.875 0.930012 104.875 2.04601V12.4C103.976 11.16 101.899 10.757 99.8837 10.354C97.7137 9.92001 95.6987 9.54801 95.3577 8.18401V2.04601C95.3577 0.930012 95.9157 0.806012 96.8767 0.806012V0.651012H92.5367V0.806012C93.4977 0.806012 94.0557 0.930012 94.0557 2.04601V20.956C94.0557 22.072 93.4977 22.196 92.5367 22.196Z" fill="#C9AC8C"/>
</svg>
