<svg width="1270" height="500" viewBox="0 0 1270 500" fill="none" xmlns="http://www.w3.org/2000/svg">
  <rect width="1270" height="500" fill="#F8F5F0"></rect>
  <rect y="380" width="1270" height="120" fill="#E9DFCF"></rect>

  <rect x="120" y="120" width="1030" height="18" rx="9" fill="#7A5C3E"></rect>
  <rect x="120" y="250" width="1030" height="18" rx="9" fill="#7A5C3E"></rect>

  <rect x="160" y="55" width="44" height="65" rx="6" fill="#C97C5D"></rect>
  <rect x="210" y="40" width="36" height="80" rx="6" fill="#6C8EAD"></rect>
  <rect x="252" y="60" width="52" height="60" rx="6" fill="#A3BE8C"></rect>
  <rect x="310" y="48" width="40" height="72" rx="6" fill="#D9A441"></rect>
  <rect x="356" y="35" width="50" height="85" rx="6" fill="#8F6BAE"></rect>
  <rect x="412" y="58" width="34" height="62" rx="6" fill="#E07A5F"></rect>
  <rect x="452" y="44" width="46" height="76" rx="6" fill="#5E81AC"></rect>
  <rect x="504" y="52" width="38" height="68" rx="6" fill="#A3BE8C"></rect>

  <rect x="700" y="50" width="42" height="70" rx="6" fill="#D08770"></rect>
  <rect x="748" y="38" width="36" height="82" rx="6" fill="#81A1C1"></rect>
  <rect x="790" y="55" width="48" height="65" rx="6" fill="#B48EAD"></rect>
  <rect x="844" y="43" width="34" height="77" rx="6" fill="#EBCB8B"></rect>
  <rect x="884" y="60" width="50" height="60" rx="6" fill="#A3BE8C"></rect>
  <rect x="940" y="35" width="44" height="85" rx="6" fill="#BF616A"></rect>
  <rect x="990" y="50" width="38" height="70" rx="6" fill="#5E81AC"></rect>

  <rect x="180" y="180" width="40" height="70" rx="6" fill="#6C8EAD"></rect>
  <rect x="226" y="168" width="34" height="82" rx="6" fill="#A3BE8C"></rect>
  <rect x="266" y="185" width="46" height="65" rx="6" fill="#D9A441"></rect>
  <rect x="318" y="172" width="38" height="78" rx="6" fill="#C97C5D"></rect>
  <rect x="362" y="160" width="52" height="90" rx="6" fill="#8F6BAE"></rect>
  <rect x="420" y="185" width="34" height="65" rx="6" fill="#5E81AC"></rect>
  <rect x="460" y="170" width="46" height="80" rx="6" fill="#A3BE8C"></rect>

  <circle cx="1010" cy="205" r="44" fill="#D9A441"></circle>
  <rect x="978" y="230" width="64" height="8" rx="4" fill="#7A5C3E"></rect>
  <rect x="995" y="145" width="30" height="60" rx="15" fill="#F4EDE1"></rect>

  <text x="635" y="450" text-anchor="middle" fill="#5B4636" font-size="38" font-family="Arial, sans-serif" font-weight="700">
    Discover the World of Books
  </text>
</svg>