<svg width="1270" height="500" viewBox="0 0 1270 500" fill="none" xmlns="http://www.w3.org/2000/svg">
  <rect width="1270" height="500" fill="#F4F7FB"></rect>
  <circle cx="1080" cy="90" r="55" fill="#FFD166" opacity="0.8"></circle>
  <circle cx="180" cy="100" r="38" fill="#A5D8FF" opacity="0.7"></circle>
  <circle cx="980" cy="160" r="22" fill="#B8F2E6" opacity="0.8"></circle>

  <rect x="0" y="390" width="1270" height="110" fill="#DCEAF7"></rect>

  <ellipse cx="635" cy="360" rx="250" ry="34" fill="#C7D9EA"></ellipse>

  <path d="M390 320C390 270 430 235 490 235H620V355H490C430 355 390 370 390 320Z" fill="#FFFFFF"></path>
  <path d="M880 320C880 270 840 235 780 235H650V355H780C840 355 880 370 880 320Z" fill="#FFFFFF"></path>

  <path d="M620 235H650V355H620V235Z" fill="#8DA9C4"></path>
  <path d="M400 316C400 280 432 255 490 255H620" stroke="#8DA9C4" stroke-width="4"></path>
  <path d="M870 316C870 280 838 255 780 255H650" stroke="#8DA9C4" stroke-width="4"></path>

  <line x1="455" y1="280" x2="585" y2="280" stroke="#D0DCE7" stroke-width="4" stroke-linecap="round"></line>
  <line x1="455" y1="300" x2="570" y2="300" stroke="#D0DCE7" stroke-width="4" stroke-linecap="round"></line>
  <line x1="455" y1="320" x2="590" y2="320" stroke="#D0DCE7" stroke-width="4" stroke-linecap="round"></line>

  <line x1="685" y1="280" x2="815" y2="280" stroke="#D0DCE7" stroke-width="4" stroke-linecap="round"></line>
  <line x1="700" y1="300" x2="815" y2="300" stroke="#D0DCE7" stroke-width="4" stroke-linecap="round"></line>
  <line x1="680" y1="320" x2="805" y2="320" stroke="#D0DCE7" stroke-width="4" stroke-linecap="round"></line>

  <rect x="245" y="150" width="95" height="130" rx="10" fill="#7FB069"></rect>
  <rect x="258" y="165" width="69" height="8" rx="4" fill="#F4F7FB"></rect>
  <rect x="258" y="182" width="52" height="8" rx="4" fill="#F4F7FB"></rect>

  <rect x="970" y="155" width="90" height="125" rx="10" fill="#F08A5D"></rect>
  <rect x="985" y="170" width="58" height="8" rx="4" fill="#F4F7FB"></rect>
  <rect x="985" y="187" width="42" height="8" rx="4" fill="#F4F7FB"></rect>

  <text x="635" y="120" text-anchor="middle" fill="#3D5A80" font-size="42" font-family="Arial, sans-serif" font-weight="700">
    Read, Learn, Grow
  </text>

  <text x="635" y="165" text-anchor="middle" fill="#6C7A89" font-size="20" font-family="Arial, sans-serif">
    Explore your favorite books and stories
  </text>
</svg>